<?xml version="1.0" encoding="utf-8" standalone="no"?>
<!DOCTYPE svg PUBLIC "-//W3C//DTD SVG 1.1//EN"
  "http://www.w3.org/Graphics/SVG/1.1/DTD/svg11.dtd">
<svg xmlns:xlink="http://www.w3.org/1999/xlink" width="177.516142pt" height="159.221024pt" viewBox="0 0 177.516142 159.221024" xmlns="http://www.w3.org/2000/svg" version="1.1">
 <metadata>
  <rdf:RDF xmlns:dc="http://purl.org/dc/elements/1.1/" xmlns:cc="http://creativecommons.org/ns#" xmlns:rdf="http://www.w3.org/1999/02/22-rdf-syntax-ns#">
   <cc:Work>
    <dc:type rdf:resource="http://purl.org/dc/dcmitype/StillImage"/>
    <dc:date>2024-11-01T18:17:57.655672</dc:date>
    <dc:format>image/svg+xml</dc:format>
    <dc:creator>
     <cc:Agent>
      <dc:title>Matplotlib v3.7.0, https://matplotlib.org/</dc:title>
     </cc:Agent>
    </dc:creator>
   </cc:Work>
  </rdf:RDF>
 </metadata>
 <defs>
  <style type="text/css">*{stroke-linejoin: round; stroke-linecap: butt}</style>
 </defs>
 <g id="figure_1">
  <g id="patch_1">
   <path d="M 0 159.221024 
L 177.516142 159.221024 
L 177.516142 0 
L 0 0 
z
" style="fill: #ffffff"/>
  </g>
  <g id="axes_1">
   <g id="line2d_1">
    <path d="M 88.758071 118.971384 
L 119.887052 76.126016 
" clip-path="url(#p8569084a0c)" style="fill: none; stroke: #000000; stroke-width: 1.5; stroke-linecap: square"/>
   </g>
   <g id="line2d_2">
    <path d="M 14.61437 118.971384 
L 162.901772 118.971384 
" clip-path="url(#p8569084a0c)" style="fill: none; stroke: #000000; stroke-width: 1.5; stroke-linecap: square"/>
   </g>
   <g id="line2d_3">
    <path d="M 153.116079 123.02475 
L 162.901772 118.971384 
" clip-path="url(#p8569084a0c)" style="fill: none; stroke: #000000; stroke-width: 1.5; stroke-linecap: square"/>
   </g>
   <g id="line2d_4">
    <path d="M 153.116079 114.918017 
L 162.901772 118.971384 
" clip-path="url(#p8569084a0c)" style="fill: none; stroke: #000000; stroke-width: 1.5; stroke-linecap: square"/>
   </g>
   <g id="line2d_5">
    <path d="M 88.758071 129.563341 
L 88.758071 44.827683 
" clip-path="url(#p8569084a0c)" style="fill: none; stroke-dasharray: 5.55,2.4; stroke-dashoffset: 0; stroke: #000000; stroke-width: 1.5"/>
   </g>
   <g id="line2d_6">
    <path d="M 92.811437 54.613375 
L 88.758071 44.827683 
" clip-path="url(#p8569084a0c)" style="fill: none; stroke-dasharray: 5.55,2.4; stroke-dashoffset: 0; stroke: #000000; stroke-width: 1.5"/>
   </g>
   <g id="line2d_7">
    <path d="M 84.704704 54.613375 
L 88.758071 44.827683 
" clip-path="url(#p8569084a0c)" style="fill: none; stroke-dasharray: 5.55,2.4; stroke-dashoffset: 0; stroke: #000000; stroke-width: 1.5"/>
   </g>
   <g id="line2d_8">
    <path d="M 88.758071 118.971384 
L 51.403293 67.556943 
" clip-path="url(#p8569084a0c)" style="fill: none; stroke: #000000; stroke-width: 1.5; stroke-linecap: square"/>
   </g>
   <g id="line2d_9">
    <path d="M 141.717857 118.971384 
L 141.715209 118.441795 
L 141.707266 117.912258 
L 141.694027 117.382828 
L 141.675495 116.853557 
L 141.651671 116.324497 
L 141.622558 115.795703 
L 141.588159 115.267225 
L 141.548476 114.739118 
L 141.503515 114.211435 
L 141.453279 113.684227 
L 141.397773 113.157548 
L 141.337004 112.631451 
L 141.270977 112.105987 
L 141.199698 111.58121 
L 141.123176 111.057172 
L 141.041417 110.533925 
L 140.954429 110.011523 
L 140.862223 109.490016 
L 140.764805 108.969457 
L 140.662187 108.449898 
L 140.554379 107.931392 
L 140.441391 107.413989 
L 140.323235 106.897743 
L 140.199922 106.382703 
L 140.071466 105.868923 
L 139.937878 105.356452 
L 139.799172 104.845344 
L 139.655361 104.335647 
L 139.506462 103.827415 
L 139.352487 103.320697 
L 139.193453 102.815543 
L 139.029376 102.312006 
L 138.860271 101.810134 
L 138.686156 101.309978 
L 138.507049 100.811589 
L 138.322967 100.315015 
L 138.133928 99.820308 
L 137.939951 99.327515 
L 137.741057 98.836686 
L 137.537264 98.347871 
L 137.328594 97.861119 
L 137.115066 97.376477 
L 136.896703 96.893995 
L 136.673526 96.413721 
L 136.445557 95.935702 
L 136.21282 95.459987 
L 135.975337 94.986623 
L 135.733132 94.515657 
L 135.48623 94.047137 
L 135.234656 93.58111 
L 134.978433 93.117621 
L 134.717589 92.656718 
L 134.452149 92.198446 
L 134.182139 91.742851 
L 133.907587 91.28998 
L 133.62852 90.839876 
L 133.344967 90.392586 
L 133.056954 89.948153 
L 132.764512 89.506623 
L 132.467669 89.068039 
L 132.166455 88.632445 
L 131.8609 88.199886 
L 131.551035 87.770403 
L 131.236891 87.344041 
L 130.918499 86.920841 
L 130.595891 86.500846 
L 130.269099 86.084098 
L 129.938156 85.670639 
L 129.603095 85.26051 
L 129.26395 84.853753 
L 128.920754 84.450406 
L 128.573542 84.050512 
L 128.222348 83.65411 
L 127.867208 83.26124 
L 127.508157 82.871941 
L 127.145231 82.486251 
L 126.778466 82.10421 
L 126.4079 81.725856 
L 126.033568 81.351226 
L 125.655509 80.980358 
L 125.273761 80.61329 
L 124.88836 80.250057 
L 124.499347 79.890696 
L 124.106759 79.535243 
L 123.710637 79.183734 
L 123.31102 78.836203 
L 122.907947 78.492686 
L 122.501459 78.153217 
L 122.091597 77.81783 
L 121.678402 77.486558 
L 121.261915 77.159434 
L 120.842177 76.836492 
L 120.419231 76.517763 
L 119.993119 76.203279 
" clip-path="url(#p8569084a0c)" style="fill: none; stroke: #000000; stroke-width: 1.5; stroke-linecap: square"/>
   </g>
   <g id="line2d_10">
    <path d="M 152.309814 118.971384 
L 152.195456 115.160566 
L 151.852791 111.363464 
L 151.283053 107.593742 
L 150.488293 103.864967 
L 149.47137 100.190559 
L 148.235946 96.583742 
L 146.786465 93.057496 
L 145.128145 89.624512 
L 143.266953 86.297145 
L 141.209588 83.08737 
L 138.963455 80.006739 
L 136.536636 77.066338 
L 133.937866 74.27675 
L 131.176497 71.648015 
L 128.262468 69.189593 
L 125.206266 66.910331 
L 122.01889 64.818433 
L 118.71181 62.921427 
L 115.29693 61.226141 
L 111.786538 59.738675 
L 108.193269 58.464382 
L 104.530054 57.40785 
L 100.810076 56.57288 
L 97.046725 55.962477 
L 93.253543 55.578838 
L 89.444183 55.423344 
L 85.632353 55.496554 
L 81.831773 55.798205 
L 78.056119 56.327211 
L 74.318982 57.081669 
L 70.633809 58.058862 
L 67.013864 59.255275 
L 63.472175 60.666602 
L 60.021487 62.287763 
L 56.674221 64.112923 
L 53.442421 66.135515 
L 51.357799 67.590027 
L 51.357799 67.590027 
" clip-path="url(#p8569084a0c)" style="fill: none; stroke: #000000; stroke-width: 1.5; stroke-linecap: square"/>
   </g>
   <g id="line2d_11">
    <path d="M 57.62909 76.126016 
L 57.202199 76.439443 
L 56.778465 76.757123 
L 56.357928 77.079025 
L 55.940632 77.405115 
L 55.526617 77.735363 
L 55.115925 78.069733 
L 54.708597 78.408194 
L 54.304675 78.750712 
L 53.904197 79.097251 
L 53.507205 79.447777 
L 53.113738 79.802256 
L 52.723836 80.160652 
L 52.337537 80.522929 
L 51.95488 80.889051 
L 51.575903 81.258981 
L 51.200644 81.632682 
L 50.829141 82.010117 
L 50.461431 82.391248 
L 50.097551 82.776037 
L 49.737536 83.164445 
L 49.381424 83.556434 
L 49.029249 83.951965 
L 48.681047 84.350998 
L 48.336853 84.753492 
L 47.996701 85.159408 
L 47.660625 85.568706 
L 47.328658 85.981344 
L 47.000835 86.39728 
L 46.677187 86.816474 
L 46.357747 87.238884 
L 46.042548 87.664467 
L 45.731619 88.09318 
L 45.424994 88.524981 
L 45.122702 88.959827 
L 44.824773 89.397674 
L 44.531237 89.838479 
L 44.242124 90.282196 
L 43.957463 90.728783 
L 43.677282 91.178193 
L 43.401609 91.630383 
L 43.130471 92.085308 
L 42.863896 92.54292 
L 42.60191 93.003176 
L 42.34454 93.466028 
L 42.091812 93.931431 
L 41.84375 94.399338 
L 41.600379 94.869702 
L 41.361724 95.342476 
L 41.127809 95.817613 
L 40.898656 96.295065 
L 40.67429 96.774785 
L 40.454732 97.256725 
L 40.240004 97.740836 
L 40.030128 98.22707 
L 39.825125 98.715378 
L 39.625015 99.205713 
L 39.429818 99.698023 
L 39.239554 100.192261 
L 39.054242 100.688377 
L 38.8739 101.186321 
L 38.698546 101.686044 
L 38.528199 102.187495 
L 38.362874 102.690625 
L 38.202589 103.195382 
L 38.047359 103.701717 
L 37.897201 104.209579 
L 37.752128 104.718918 
L 37.612156 105.229681 
L 37.477299 105.741819 
L 37.347569 106.25528 
L 37.222981 106.770012 
L 37.103546 107.285964 
L 36.989276 107.803085 
L 36.880184 108.321323 
L 36.776279 108.840626 
L 36.677572 109.360941 
L 36.584073 109.882218 
L 36.495792 110.404404 
L 36.412736 110.927446 
L 36.334916 111.451293 
L 36.262337 111.975892 
L 36.195008 112.50119 
L 36.132935 113.027136 
L 36.076125 113.553676 
L 36.024583 114.080757 
L 35.978314 114.608328 
L 35.937323 115.136335 
L 35.901615 115.664725 
L 35.871191 116.193446 
L 35.846057 116.722445 
L 35.826213 117.251669 
L 35.811663 117.781065 
L 35.802407 118.310579 
L 35.798447 118.84016 
" clip-path="url(#p8569084a0c)" style="fill: none; stroke: #000000; stroke-width: 1.5; stroke-linecap: square"/>
   </g>
   <g id="line2d_12">
    <path d="M 117.07058 104.54544 
L 115.827183 102.328993 
L 114.410637 100.219 
L 112.830001 98.228959 
L 111.095388 96.371598 
L 109.217891 94.658799 
L 107.209522 93.101517 
L 105.083127 91.709715 
L 102.852306 90.492294 
L 100.531331 89.457042 
L 98.135047 88.610581 
L 95.678783 87.958325 
L 93.178249 87.504448 
L 90.649441 87.251851 
L 88.108536 87.202151 
L 85.571785 87.355666 
L 83.055415 87.711413 
L 80.575523 88.267118 
L 78.147971 89.019225 
L 75.788287 89.962924 
L 73.511566 91.092178 
L 71.332371 92.399763 
L 69.264641 93.877317 
L 67.321602 95.515386 
L 65.515683 97.303494 
L 63.858436 99.230203 
L 62.360462 101.283188 
L 61.031343 103.449317 
L 60.578227 104.287978 
L 60.578227 104.287978 
" clip-path="url(#p8569084a0c)" style="fill: none; stroke-dasharray: 5.55,2.4; stroke-dashoffset: 0; stroke: #000000; stroke-width: 1.5"/>
   </g>
   <g id="line2d_13">
    <path d="M 108.263689 98.660864 
L 117.07058 104.54544 
" clip-path="url(#p8569084a0c)" style="fill: none; stroke-dasharray: 5.55,2.4; stroke-dashoffset: 0; stroke: #000000; stroke-width: 1.5"/>
   </g>
   <g id="line2d_14">
    <path d="M 115.004192 94.157004 
L 117.07058 104.54544 
" clip-path="url(#p8569084a0c)" style="fill: none; stroke-dasharray: 5.55,2.4; stroke-dashoffset: 0; stroke: #000000; stroke-width: 1.5"/>
   </g>
   <g id="text_1">
    <!-- $y$ -->
    <g transform="translate(94.054049 50.123661)">
     <text>
      <tspan style="font: oblique 5px 'DejaVu Sans'" x="0" y="-0.265625">y</tspan>
     </text>
    </g>
   </g>
   <g id="text_2">
    <!-- $x$ -->
    <g transform="translate(157.605793 113.675405)">
     <text>
      <tspan style="font: oblique 5px 'DejaVu Sans'" x="0" y="-0.265625">x</tspan>
     </text>
    </g>
   </g>
   <g id="text_3">
    <!-- $\theta$ -->
    <g transform="translate(106.729692 111.557013)">
     <text>
      <tspan style="font: oblique 5px 'DejaVu Sans'" x="0" y="-0.15625">θ</tspan>
     </text>
    </g>
   </g>
   <g id="text_4">
    <!-- $\theta$ -->
    <g transform="translate(65.490471 111.557013)">
     <text>
      <tspan style="font: oblique 5px 'DejaVu Sans'" x="0" y="-0.15625">θ</tspan>
     </text>
    </g>
   </g>
   <g id="text_5">
    <!-- $180\degree - \theta$ -->
    <g transform="translate(54.863808 71.307576)">
     <text>
      <tspan style="font: 5px 'DejaVu Sans'" x="0 3.181152 6.362305 9.543457 13.017578" y="-0.15625">180°−</tspan>
      <tspan style="font: oblique 5px 'DejaVu Sans'" x="18.181152" y="-0.15625">θ</tspan>
     </text>
    </g>
   </g>
   <g id="text_6">
    <!-- Subtracting the heading from $180\degree$ -->
    <g transform="translate(49.933071 10.95)">
     <text>
      <tspan style="font: 5px 'Arial'" x="0 3.334961 6.115723 8.896484 10.285645 11.950684 14.731445 17.231445 18.620605 19.731445 22.512207 25.292969 26.682129 28.071289 30.852051 33.632812 35.021973 37.802734 40.583496 43.364258 46.14502 47.255859 50.036621 52.817383 54.206543 55.595703 57.260742 60.041504 64.206543" y="-0.28125">Subtracting the heading from </tspan>
      <tspan style="font: 5px 'DejaVu Sans'" x="65.595703 68.776855 71.958008 75.13916" y="-0.28125">180°</tspan>
     </text>
    </g>
    <!--  when mirroring around the $y$ axis -->
    <g transform="translate(51.558071 16.37)">
     <text>
      <tspan style="font: 5px 'Arial'" x="0 1.38916 5 7.780762 10.561523 13.342285 14.731445 18.896484 20.007324 21.672363 23.337402 26.118164 27.783203 28.894043 31.674805 34.455566 35.844727 38.625488 40.290527 43.071289 45.852051 48.632812 51.413574 52.802734 54.191895 56.972656 59.753418 64.101562 65.490723 68.271484 70.771484 71.882324" y="-0.421875"> when mirroring around the  axis</tspan>
      <tspan style="font: oblique 5px 'DejaVu Sans'" x="61.142578" y="-0.421875">y</tspan>
     </text>
    </g>
   </g>
  </g>
 </g>
 <defs>
  <clipPath id="p8569084a0c">
   <rect x="7.2" y="22.37" width="163.116142" height="129.651024"/>
  </clipPath>
 </defs>
</svg>
