<?xml version="1.0" encoding="utf-8" standalone="no"?>
<!DOCTYPE svg PUBLIC "-//W3C//DTD SVG 1.1//EN"
  "http://www.w3.org/Graphics/SVG/1.1/DTD/svg11.dtd">
<svg xmlns:xlink="http://www.w3.org/1999/xlink" width="177.516142pt" height="159.221024pt" viewBox="0 0 177.516142 159.221024" xmlns="http://www.w3.org/2000/svg" version="1.1">
 <metadata>
  <rdf:RDF xmlns:dc="http://purl.org/dc/elements/1.1/" xmlns:cc="http://creativecommons.org/ns#" xmlns:rdf="http://www.w3.org/1999/02/22-rdf-syntax-ns#">
   <cc:Work>
    <dc:type rdf:resource="http://purl.org/dc/dcmitype/StillImage"/>
    <dc:date>2024-11-01T18:17:57.903256</dc:date>
    <dc:format>image/svg+xml</dc:format>
    <dc:creator>
     <cc:Agent>
      <dc:title>Matplotlib v3.7.0, https://matplotlib.org/</dc:title>
     </cc:Agent>
    </dc:creator>
   </cc:Work>
  </rdf:RDF>
 </metadata>
 <defs>
  <style type="text/css">*{stroke-linejoin: round; stroke-linecap: butt}</style>
 </defs>
 <g id="figure_1">
  <g id="patch_1">
   <path d="M 0 159.221024 
L 177.516142 159.221024 
L 177.516142 0 
L 0 0 
z
" style="fill: #ffffff"/>
  </g>
  <g id="axes_1">
   <g id="line2d_1">
    <path d="M 88.758071 92.553024 
L 57.267566 49.210063 
" clip-path="url(#pab239359e5)" style="fill: none; stroke: #000000; stroke-width: 1.5; stroke-linecap: square"/>
   </g>
   <g id="line2d_2">
    <path d="M 13.753285 92.553024 
L 88.758071 92.553024 
" clip-path="url(#pab239359e5)" style="fill: none; stroke-dasharray: 5.55,2.4; stroke-dashoffset: 0; stroke: #000000; stroke-width: 1.5"/>
   </g>
   <g id="line2d_3">
    <path d="M 153.047887 92.553024 
L 163.762856 92.553024 
" clip-path="url(#pab239359e5)" style="fill: none; stroke-dasharray: 5.55,2.4; stroke-dashoffset: 0; stroke: #000000; stroke-width: 1.5"/>
   </g>
   <g id="line2d_4">
    <path d="M 88.758071 92.553024 
L 153.047887 92.553024 
" clip-path="url(#pab239359e5)" style="fill: none; stroke: #000000; stroke-width: 1.5; stroke-linecap: square"/>
   </g>
   <g id="line2d_5">
    <path d="M 153.863516 96.653465 
L 163.762856 92.553024 
" clip-path="url(#pab239359e5)" style="fill: none; stroke-dasharray: 5.55,2.4; stroke-dashoffset: 0; stroke: #000000; stroke-width: 1.5"/>
   </g>
   <g id="line2d_6">
    <path d="M 153.863516 88.452583 
L 163.762856 92.553024 
" clip-path="url(#pab239359e5)" style="fill: none; stroke-dasharray: 5.55,2.4; stroke-dashoffset: 0; stroke: #000000; stroke-width: 1.5"/>
   </g>
   <g id="line2d_7">
    <path d="M 88.758071 92.553024 
L 50.969465 144.564578 
" clip-path="url(#pab239359e5)" style="fill: none; stroke: #000000; stroke-width: 1.5; stroke-linecap: square"/>
   </g>
   <g id="line2d_8">
    <path d="M 142.332918 92.553024 
L 142.236512 89.340462 
L 141.947641 86.139461 
L 141.467346 82.961542 
L 140.797354 79.818142 
L 139.940077 76.720574 
L 138.8986 73.679986 
L 137.676671 70.70732 
L 136.278688 67.813276 
L 134.709682 65.008267 
L 132.9753 62.30239 
L 131.081784 59.705383 
L 129.035948 57.226591 
L 126.845155 54.874937 
L 124.51729 52.658883 
L 122.06073 50.586405 
L 119.484316 48.664961 
L 116.797322 46.901467 
L 114.009416 45.30227 
L 111.130632 43.873124 
L 108.171332 42.619173 
L 105.142165 41.54493 
L 102.054033 40.654261 
L 98.918049 39.950372 
L 95.745501 39.435795 
L 92.547806 39.112383 
L 89.336471 38.9813 
L 86.123055 39.043017 
L 82.919122 39.297312 
L 79.736203 39.74327 
L 76.585753 40.379287 
L 73.479111 41.203072 
L 70.427456 42.211662 
L 67.441771 43.401426 
L 64.532802 44.768083 
L 61.711018 46.306715 
L 58.986574 48.011783 
L 57.229214 49.237953 
L 57.229214 49.237953 
" clip-path="url(#pab239359e5)" style="fill: none; stroke: #000000; stroke-width: 1.5; stroke-linecap: square"/>
   </g>
   <g id="line2d_9">
    <path d="M 153.047887 92.553024 
L 152.9322 88.697949 
L 152.585556 84.856748 
L 152.009201 81.043246 
L 151.205211 77.271166 
L 150.176478 73.554084 
L 148.926706 69.905378 
L 147.460391 66.33818 
L 145.782811 62.865326 
L 143.900004 59.499316 
L 141.818746 56.252263 
L 139.546526 53.135854 
L 137.091523 50.161305 
L 134.462572 47.33932 
L 131.669133 44.680055 
L 128.721261 42.193081 
L 125.629565 39.887349 
L 122.405172 37.771156 
L 119.059685 35.852119 
L 115.605145 34.137144 
L 112.053984 32.632403 
L 108.418984 31.343311 
L 104.713225 30.274508 
L 100.950045 29.429841 
L 97.142987 28.812349 
L 93.305753 28.424255 
L 89.452151 28.266955 
L 85.596052 28.341015 
L 81.751333 28.646169 
L 77.93183 29.181319 
L 74.15129 29.944539 
L 70.423319 30.933082 
L 66.761333 32.143389 
L 63.178511 33.571107 
L 59.687749 35.211095 
L 56.301608 37.057453 
L 53.032275 39.103534 
L 49.891516 41.341976 
L 46.890636 43.764723 
L 44.040432 46.363055 
L 41.351164 49.12762 
L 38.83251 52.048471 
L 36.493534 55.115094 
L 34.342653 58.316453 
L 32.38761 61.641027 
L 30.635439 65.07685 
L 29.092447 68.611558 
L 27.764187 72.23243 
L 26.655438 75.926434 
L 25.770193 79.680275 
L 25.111635 83.480445 
L 24.682136 87.313266 
L 24.483241 91.164944 
L 24.515667 95.021618 
L 24.779295 98.869408 
L 25.273178 102.694466 
L 25.995538 106.483025 
L 26.943775 110.221452 
L 28.114477 113.896291 
L 29.503431 117.494317 
L 31.105637 121.002582 
L 32.91533 124.408459 
L 34.925996 127.699691 
L 37.1304 130.864433 
L 39.520607 133.891295 
L 42.088016 136.769384 
L 44.823387 139.488342 
L 47.716876 142.038383 
L 50.758068 144.410331 
L 50.758068 144.410331 
" clip-path="url(#pab239359e5)" style="fill: none; stroke: #000000; stroke-width: 1.5; stroke-linecap: square"/>
   </g>
   <g id="line2d_10">
    <path d="M 57.267566 135.895986 
L 59.92325 137.706289 
L 62.682707 139.354089 
L 65.536008 140.833455 
L 68.472883 142.139064 
L 71.482763 143.266217 
L 74.554816 144.210858 
L 77.677985 144.969586 
L 80.84103 145.53967 
L 84.032568 145.919061 
L 87.241113 146.106391 
L 90.455117 146.100986 
L 93.663013 145.902867 
L 96.853257 145.512746 
L 100.014368 144.932028 
L 103.134967 144.162801 
L 106.203826 143.207835 
L 109.209898 142.070566 
L 112.142366 140.755088 
L 114.990676 139.266134 
L 117.744577 137.609064 
L 120.394157 135.78984 
L 122.929882 133.815011 
L 125.342625 131.691683 
L 127.623704 129.427498 
L 129.764908 127.030605 
L 131.758531 124.509629 
L 133.5974 121.873645 
L 135.274895 119.132138 
L 136.78498 116.294975 
L 138.12222 113.372366 
L 139.281802 110.37483 
L 140.259554 107.313155 
L 141.051956 104.19836 
L 141.656156 101.041654 
L 142.06998 97.854398 
L 142.291939 94.648062 
L 142.332897 92.505603 
L 142.332897 92.505603 
" clip-path="url(#pab239359e5)" style="fill: none; stroke: #000000; stroke-width: 1.5; stroke-linecap: square"/>
   </g>
   <g id="line2d_11">
    <path d="M 103.351554 63.911701 
L 101.016017 62.837071 
L 98.602071 61.952521 
L 96.125157 61.26371 
L 93.601119 60.775044 
L 91.046102 60.489649 
L 88.47645 60.40935 
L 85.908598 60.53466 
L 83.358974 60.864779 
L 80.843886 61.397595 
L 78.379421 62.129699 
L 75.981344 63.056408 
L 73.664995 64.171795 
L 71.44519 65.468725 
L 69.336128 66.938902 
L 67.3513 68.572922 
L 65.503403 70.360333 
L 63.804256 72.289702 
L 62.264728 74.348686 
L 60.894668 76.524116 
L 59.702838 78.802077 
L 58.696862 81.167996 
L 57.883176 83.606741 
L 57.266983 86.102712 
L 56.852226 88.639943 
L 56.641558 91.202204 
L 56.636326 93.773105 
L 56.836563 96.336203 
L 57.240989 98.8751 
L 57.847016 101.373558 
L 58.650769 103.815595 
L 59.647106 106.18559 
L 60.829654 108.468383 
L 62.190848 110.649372 
L 63.721982 112.714606 
L 65.413261 114.650875 
L 67.253868 116.445792 
L 69.232028 118.087878 
L 71.335088 119.566628 
L 73.549596 120.872583 
L 75.861386 121.997389 
L 78.255671 122.933852 
L 80.717135 123.675981 
L 83.230034 124.21903 
L 85.778293 124.559524 
L 88.345613 124.695286 
L 90.915571 124.625447 
L 93.471729 124.350454 
L 95.997735 123.872066 
L 98.477432 123.193343 
L 100.894958 122.318626 
L 103.23485 121.253512 
L 103.23485 121.253512 
" clip-path="url(#pab239359e5)" style="fill: none; stroke-dasharray: 5.55,2.4; stroke-dashoffset: 0; stroke: #000000; stroke-width: 1.5"/>
   </g>
   <g id="line2d_12">
    <path d="M 92.636584 63.911701 
L 103.351554 63.911701 
" clip-path="url(#pab239359e5)" style="fill: none; stroke-dasharray: 5.55,2.4; stroke-dashoffset: 0; stroke: #000000; stroke-width: 1.5"/>
   </g>
   <g id="line2d_13">
    <path d="M 95.774926 56.335074 
L 103.351554 63.911701 
" clip-path="url(#pab239359e5)" style="fill: none; stroke-dasharray: 5.55,2.4; stroke-dashoffset: 0; stroke: #000000; stroke-width: 1.5"/>
   </g>
   <g id="text_1">
    <!-- $x$ -->
    <g transform="translate(158.405372 87.195539)">
     <text>
      <tspan style="font: oblique 5px 'DejaVu Sans'" x="0" y="-0.265625">x</tspan>
     </text>
    </g>
   </g>
   <g id="text_2">
    <!-- $\theta$ -->
    <g transform="translate(90.901065 108.625478)">
     <text>
      <tspan style="font: oblique 5px 'DejaVu Sans'" x="0" y="-0.15625">θ</tspan>
     </text>
    </g>
   </g>
   <g id="text_3">
    <!-- $\theta$ -->
    <g transform="translate(90.901065 79.695061)">
     <text>
      <tspan style="font: oblique 5px 'DejaVu Sans'" x="0" y="-0.15625">θ</tspan>
     </text>
    </g>
   </g>
   <g id="text_4">
    <!-- $360\degree - \theta$ -->
    <g transform="translate(30.237854 71.123085)">
     <text>
      <tspan style="font: 5px 'DejaVu Sans'" x="0 3.181152 6.362305 9.543457 13.017578" y="-0.15625">360°−</tspan>
      <tspan style="font: oblique 5px 'DejaVu Sans'" x="18.181152" y="-0.15625">θ</tspan>
     </text>
    </g>
   </g>
   <g id="text_5">
    <!-- Subtracting the heading from $360\degree$ -->
    <g transform="translate(49.933071 10.95)">
     <text>
      <tspan style="font: 5px 'Arial'" x="0 3.334961 6.115723 8.896484 10.285645 11.950684 14.731445 17.231445 18.620605 19.731445 22.512207 25.292969 26.682129 28.071289 30.852051 33.632812 35.021973 37.802734 40.583496 43.364258 46.14502 47.255859 50.036621 52.817383 54.206543 55.595703 57.260742 60.041504 64.206543" y="-0.28125">Subtracting the heading from </tspan>
      <tspan style="font: 5px 'DejaVu Sans'" x="65.595703 68.776855 71.958008 75.13916" y="-0.28125">360°</tspan>
     </text>
    </g>
    <!--  when mirroring around the $x$ axis -->
    <g transform="translate(51.558071 16.37)">
     <text>
      <tspan style="font: 5px 'Arial'" x="0 1.38916 5 7.780762 10.561523 13.342285 14.731445 18.896484 20.007324 21.672363 23.337402 26.118164 27.783203 28.894043 31.674805 34.455566 35.844727 38.625488 40.290527 43.071289 45.852051 48.632812 51.413574 52.802734 54.191895 56.972656 59.753418 64.101562 65.490723 68.271484 70.771484 71.882324" y="-0.421875"> when mirroring around the  axis</tspan>
      <tspan style="font: oblique 5px 'DejaVu Sans'" x="61.142578" y="-0.421875">x</tspan>
     </text>
    </g>
   </g>
  </g>
 </g>
 <defs>
  <clipPath id="pab239359e5">
   <rect x="7.2" y="22.37" width="163.116142" height="129.651024"/>
  </clipPath>
 </defs>
</svg>
