<?xml version="1.0" encoding="utf-8" standalone="no"?>
<!DOCTYPE svg PUBLIC "-//W3C//DTD SVG 1.1//EN"
  "http://www.w3.org/Graphics/SVG/1.1/DTD/svg11.dtd">
<svg xmlns:xlink="http://www.w3.org/1999/xlink" width="177.516142pt" height="153.801024pt" viewBox="0 0 177.516142 153.801024" xmlns="http://www.w3.org/2000/svg" version="1.1">
 <metadata>
  <rdf:RDF xmlns:dc="http://purl.org/dc/elements/1.1/" xmlns:cc="http://creativecommons.org/ns#" xmlns:rdf="http://www.w3.org/1999/02/22-rdf-syntax-ns#">
   <cc:Work>
    <dc:type rdf:resource="http://purl.org/dc/dcmitype/StillImage"/>
    <dc:date>2024-11-01T18:17:57.285544</dc:date>
    <dc:format>image/svg+xml</dc:format>
    <dc:creator>
     <cc:Agent>
      <dc:title>Matplotlib v3.7.0, https://matplotlib.org/</dc:title>
     </cc:Agent>
    </dc:creator>
   </cc:Work>
  </rdf:RDF>
 </metadata>
 <defs>
  <style type="text/css">*{stroke-linejoin: round; stroke-linecap: butt}</style>
 </defs>
 <g id="figure_1">
  <g id="patch_1">
   <path d="M 0 153.801024 
L 177.516142 153.801024 
L 177.516142 0 
L 0 0 
z
" style="fill: #ffffff"/>
  </g>
  <g id="axes_1">
   <g id="line2d_1">
    <path d="M 44.558858 125.974724 
L 116.074687 74.015434 
" clip-path="url(#pe79b8c580a)" style="fill: none; stroke: #000000; stroke-width: 1.5; stroke-linecap: square"/>
   </g>
   <g id="line2d_2">
    <path d="M 44.558858 140.707795 
L 44.558858 22.843228 
" clip-path="url(#pe79b8c580a)" style="fill: none; stroke: #000000; stroke-width: 1.5; stroke-linecap: square"/>
   </g>
   <g id="line2d_3">
    <path d="M 50.19696 36.454811 
L 44.558858 22.843228 
" clip-path="url(#pe79b8c580a)" style="fill: none; stroke: #000000; stroke-width: 1.5; stroke-linecap: square"/>
   </g>
   <g id="line2d_4">
    <path d="M 38.920756 36.454811 
L 44.558858 22.843228 
" clip-path="url(#pe79b8c580a)" style="fill: none; stroke: #000000; stroke-width: 1.5; stroke-linecap: square"/>
   </g>
   <g id="line2d_5">
    <path d="M 29.825787 125.974724 
L 147.690354 125.974724 
" clip-path="url(#pe79b8c580a)" style="fill: none; stroke: #000000; stroke-width: 1.5; stroke-linecap: square"/>
   </g>
   <g id="line2d_6">
    <path d="M 134.078772 131.612827 
L 147.690354 125.974724 
" clip-path="url(#pe79b8c580a)" style="fill: none; stroke: #000000; stroke-width: 1.5; stroke-linecap: square"/>
   </g>
   <g id="line2d_7">
    <path d="M 134.078772 120.336622 
L 147.690354 125.974724 
" clip-path="url(#pe79b8c580a)" style="fill: none; stroke: #000000; stroke-width: 1.5; stroke-linecap: square"/>
   </g>
   <g id="line2d_8">
    <path d="M 132.957283 125.974724 
L 132.952864 125.090755 
L 132.939604 124.206874 
L 132.917507 123.323169 
L 132.886574 122.43973 
L 132.846808 121.556645 
L 132.798214 120.674001 
L 132.740796 119.791887 
L 132.674559 118.910391 
L 132.599511 118.029602 
L 132.51566 117.149608 
L 132.423012 116.270495 
L 132.321578 115.392354 
L 132.211368 114.51527 
L 132.092393 113.639333 
L 131.964664 112.764629 
L 131.828195 111.891246 
L 131.683 111.019271 
L 131.529091 110.148792 
L 131.366486 109.279896 
L 131.1952 108.412668 
L 131.015251 107.547198 
L 130.826656 106.683569 
L 130.629434 105.82187 
L 130.423606 104.962187 
L 130.209191 104.104604 
L 129.98621 103.249208 
L 129.754688 102.396085 
L 129.514646 101.54532 
L 129.266108 100.696998 
L 129.009099 99.851204 
L 128.743646 99.008021 
L 128.469774 98.167536 
L 128.187512 97.329831 
L 127.896886 96.494991 
L 127.597927 95.663098 
L 127.290664 94.834237 
L 126.975127 94.00849 
L 126.65135 93.185939 
L 126.319363 92.366667 
L 125.9792 91.550756 
L 125.630895 90.738288 
L 125.274483 89.929343 
L 124.909999 89.124002 
L 124.53748 88.322346 
L 124.156964 87.524456 
L 123.768488 86.730411 
L 123.372091 85.94029 
L 122.967813 85.154173 
L 122.555693 84.372137 
L 122.135775 83.594262 
L 121.708098 82.820625 
L 121.272707 82.051303 
L 120.829645 81.286373 
L 120.378955 80.525912 
L 119.920683 79.769997 
L 119.454876 79.018701 
L 118.981579 78.272101 
L 118.500839 77.530271 
L 118.012706 76.793286 
L 117.517227 76.061219 
L 117.014452 75.334143 
L 116.504432 74.612131 
L 115.987218 73.895256 
" clip-path="url(#pe79b8c580a)" style="fill: none; stroke: #000000; stroke-width: 1.5; stroke-linecap: square"/>
   </g>
   <g id="line2d_9">
    <path d="M 104.155382 82.675316 
L 103.719415 82.081525 
L 103.277532 81.492124 
L 102.829778 80.907171 
L 102.376196 80.326725 
L 101.916833 79.750844 
L 101.451734 79.179585 
L 100.980946 78.613005 
L 100.504516 78.051162 
L 100.022491 77.494111 
L 99.53492 76.941908 
L 99.041851 76.394608 
L 98.543334 75.852266 
L 98.039418 75.314936 
L 97.530155 74.782673 
L 97.015594 74.255528 
L 96.495788 73.733555 
L 95.970788 73.216807 
L 95.440647 72.705334 
L 94.905418 72.199188 
L 94.365155 71.698419 
L 93.81991 71.203079 
L 93.26974 70.713215 
L 92.714699 70.228877 
L 92.154842 69.750114 
L 91.590225 69.276973 
L 91.020905 68.809502 
L 90.44694 68.347748 
L 89.868385 67.891756 
L 89.2853 67.441573 
L 88.697742 66.997242 
L 88.10577 66.55881 
L 87.509443 66.126318 
L 86.908821 65.699812 
L 86.303965 65.279333 
L 85.694934 64.864924 
L 85.081789 64.456626 
L 84.464592 64.054479 
L 83.843405 63.658524 
L 83.218289 63.268801 
L 82.589307 62.885348 
L 81.956523 62.508205 
L 81.319998 62.137408 
L 80.679798 61.772994 
L 80.035985 61.415001 
L 79.388625 61.063463 
L 78.737781 60.718417 
L 78.08352 60.379896 
L 77.425907 60.047935 
L 76.765006 59.722566 
L 76.100886 59.403823 
L 75.433611 59.091736 
L 74.763248 58.786338 
L 74.089865 58.487659 
L 73.413529 58.195728 
L 72.734308 57.910575 
L 72.052269 57.632228 
L 71.367481 57.360716 
L 70.680012 57.096065 
L 69.989931 56.838301 
L 69.297306 56.587452 
L 68.602208 56.343541 
L 67.904706 56.106593 
L 67.204869 55.876631 
L 66.502767 55.65368 
L 65.798471 55.437761 
L 65.092052 55.228895 
L 64.383578 55.027104 
L 63.673123 54.832407 
L 62.960756 54.644825 
L 62.246549 54.464375 
L 61.530573 54.291077 
L 60.8129 54.124947 
L 60.093601 53.966001 
L 59.372749 53.814257 
L 58.650416 53.669728 
L 57.926673 53.53243 
L 57.201594 53.402377 
L 56.475251 53.27958 
L 55.747715 53.164053 
L 55.019061 53.055807 
L 54.289361 52.954852 
L 53.558688 52.8612 
L 52.827115 52.774859 
L 52.094715 52.695837 
L 51.361562 52.624144 
L 50.627728 52.559786 
L 49.893288 52.502769 
L 49.158314 52.453099 
L 48.42288 52.410781 
L 47.687059 52.37582 
L 46.950926 52.348218 
L 46.214554 52.327979 
L 45.478016 52.315105 
L 44.741386 52.309596 
" clip-path="url(#pe79b8c580a)" style="fill: none; stroke: #000000; stroke-width: 1.5; stroke-linecap: square"/>
   </g>
   <g id="text_1">
    <!-- $y$ -->
    <g transform="translate(51.925394 30.209764)">
     <text>
      <tspan style="font: oblique 5px 'DejaVu Sans'" x="0" y="-0.265625">y</tspan>
     </text>
    </g>
   </g>
   <g id="text_2">
    <!-- $x$ -->
    <g transform="translate(140.323819 118.608189)">
     <text>
      <tspan style="font: oblique 5px 'DejaVu Sans'" x="0" y="-0.265625">x</tspan>
     </text>
    </g>
   </g>
   <g id="text_3">
    <!-- $\theta$ -->
    <g transform="translate(77.503006 117.134882)">
     <text>
      <tspan style="font: oblique 5px 'DejaVu Sans'" x="0" y="-0.15625">θ</tspan>
     </text>
    </g>
   </g>
   <g id="text_4">
    <!-- $90\degree - \theta$ -->
    <g transform="translate(53.398701 89.142047)">
     <text>
      <tspan style="font: 5px 'DejaVu Sans'" x="0 3.181152 6.362305 9.836426" y="-0.15625">90°−</tspan>
      <tspan style="font: oblique 5px 'DejaVu Sans'" x="15" y="-0.15625">θ</tspan>
     </text>
    </g>
   </g>
   <g id="text_5">
    <!-- Subtracting the heading from $90\degree$ -->
    <g transform="translate(51.508071 10.95)">
     <text>
      <tspan style="font: 5px 'Arial'" x="0 3.334961 6.115723 8.896484 10.285645 11.950684 14.731445 17.231445 18.620605 19.731445 22.512207 25.292969 26.682129 28.071289 30.852051 33.632812 35.021973 37.802734 40.583496 43.364258 46.14502 47.255859 50.036621 52.817383 54.206543 55.595703 57.260742 60.041504 64.206543" y="-0.28125">Subtracting the heading from </tspan>
      <tspan style="font: 5px 'DejaVu Sans'" x="65.595703 68.776855 71.958008" y="-0.28125">90°</tspan>
     </text>
    </g>
   </g>
  </g>
 </g>
 <defs>
  <clipPath id="pe79b8c580a">
   <rect x="7.2" y="16.95" width="163.116142" height="129.651024"/>
  </clipPath>
 </defs>
</svg>
