<?xml version="1.0" encoding="utf-8" standalone="no"?>
<!DOCTYPE svg PUBLIC "-//W3C//DTD SVG 1.1//EN"
  "http://www.w3.org/Graphics/SVG/1.1/DTD/svg11.dtd">
<svg xmlns:xlink="http://www.w3.org/1999/xlink" width="267.048212pt" height="103.127596pt" viewBox="0 0 267.048212 103.127596" xmlns="http://www.w3.org/2000/svg" version="1.1">
 <metadata>
  <rdf:RDF xmlns:dc="http://purl.org/dc/elements/1.1/" xmlns:cc="http://creativecommons.org/ns#" xmlns:rdf="http://www.w3.org/1999/02/22-rdf-syntax-ns#">
   <cc:Work>
    <dc:type rdf:resource="http://purl.org/dc/dcmitype/StillImage"/>
    <dc:date>2024-11-01T18:38:00.719720</dc:date>
    <dc:format>image/svg+xml</dc:format>
    <dc:creator>
     <cc:Agent>
      <dc:title>Matplotlib v3.7.0, https://matplotlib.org/</dc:title>
     </cc:Agent>
    </dc:creator>
   </cc:Work>
  </rdf:RDF>
 </metadata>
 <defs>
  <style type="text/css">*{stroke-linejoin: round; stroke-linecap: butt}</style>
 </defs>
 <g id="figure_1">
  <g id="patch_1">
   <path d="M 0 103.127596 
L 267.048212 103.127596 
L 267.048212 0 
L 0 0 
z
" style="fill: #ffffff"/>
  </g>
  <g id="axes_1">
   <g id="patch_2">
    <path d="M 38.064063 75.782283 
L 255.552251 75.782283 
L 255.552251 16.85 
L 38.064063 16.85 
z
" style="fill: #ffffff"/>
   </g>
   <g id="matplotlib.axis_1">
    <g id="xtick_1">
     <g id="line2d_1">
      <defs>
       <path id="mb742a62333" d="M 0 0 
L 0 3.5 
" style="stroke: #000000; stroke-width: 0.8"/>
      </defs>
      <g>
       <use xlink:href="#mb742a62333" x="47.949889" y="75.782283" style="stroke: #000000; stroke-width: 0.8"/>
      </g>
     </g>
     <g id="text_1">
      <text style="font: 5px 'Arial'; text-anchor: middle" x="47.949889" y="86.36119" transform="rotate(-0 47.949889 86.36119)">0.0008</text>
     </g>
    </g>
    <g id="xtick_2">
     <g id="line2d_2">
      <g>
       <use xlink:href="#mb742a62333" x="88.800413" y="75.782283" style="stroke: #000000; stroke-width: 0.8"/>
      </g>
     </g>
     <g id="text_2">
      <text style="font: 5px 'Arial'; text-anchor: middle" x="88.800413" y="86.36119" transform="rotate(-0 88.800413 86.36119)">0.0010</text>
     </g>
    </g>
    <g id="xtick_3">
     <g id="line2d_3">
      <g>
       <use xlink:href="#mb742a62333" x="129.650937" y="75.782283" style="stroke: #000000; stroke-width: 0.8"/>
      </g>
     </g>
     <g id="text_3">
      <text style="font: 5px 'Arial'; text-anchor: middle" x="129.650937" y="86.36119" transform="rotate(-0 129.650937 86.36119)">0.0012</text>
     </g>
    </g>
    <g id="xtick_4">
     <g id="line2d_4">
      <g>
       <use xlink:href="#mb742a62333" x="170.501461" y="75.782283" style="stroke: #000000; stroke-width: 0.8"/>
      </g>
     </g>
     <g id="text_4">
      <text style="font: 5px 'Arial'; text-anchor: middle" x="170.501461" y="86.36119" transform="rotate(-0 170.501461 86.36119)">0.0014</text>
     </g>
    </g>
    <g id="xtick_5">
     <g id="line2d_5">
      <g>
       <use xlink:href="#mb742a62333" x="211.351985" y="75.782283" style="stroke: #000000; stroke-width: 0.8"/>
      </g>
     </g>
     <g id="text_5">
      <text style="font: 5px 'Arial'; text-anchor: middle" x="211.351985" y="86.36119" transform="rotate(-0 211.351985 86.36119)">0.0016</text>
     </g>
    </g>
    <g id="xtick_6">
     <g id="line2d_6">
      <g>
       <use xlink:href="#mb742a62333" x="252.202509" y="75.782283" style="stroke: #000000; stroke-width: 0.8"/>
      </g>
     </g>
     <g id="text_6">
      <text style="font: 5px 'Arial'; text-anchor: middle" x="252.202509" y="86.36119" transform="rotate(-0 252.202509 86.36119)">0.0018</text>
     </g>
    </g>
    <g id="text_7">
     <text style="font: 5px 'Arial'; text-anchor: middle" x="146.808157" y="94.933846" transform="rotate(-0 146.808157 94.933846)">x</text>
    </g>
   </g>
   <g id="matplotlib.axis_2">
    <g id="ytick_1">
     <g id="line2d_7">
      <defs>
       <path id="mcbc916376e" d="M 0 0 
L -3.5 0 
" style="stroke: #000000; stroke-width: 0.8"/>
      </defs>
      <g>
       <use xlink:href="#mcbc916376e" x="38.064063" y="75.320014" style="stroke: #000000; stroke-width: 0.8"/>
      </g>
     </g>
     <g id="text_8">
      <text style="font: 5px 'Arial'; text-anchor: end" x="31.064063" y="77.109467" transform="rotate(-0 31.064063 77.109467)">0.0001</text>
     </g>
    </g>
    <g id="ytick_2">
     <g id="line2d_8">
      <g>
       <use xlink:href="#mcbc916376e" x="38.064063" y="54.894752" style="stroke: #000000; stroke-width: 0.8"/>
      </g>
     </g>
     <g id="text_9">
      <text style="font: 5px 'Arial'; text-anchor: end" x="31.064063" y="56.684205" transform="rotate(-0 31.064063 56.684205)">0.0002</text>
     </g>
    </g>
    <g id="ytick_3">
     <g id="line2d_9">
      <g>
       <use xlink:href="#mcbc916376e" x="38.064063" y="34.46949" style="stroke: #000000; stroke-width: 0.8"/>
      </g>
     </g>
     <g id="text_10">
      <text style="font: 5px 'Arial'; text-anchor: end" x="31.064063" y="36.258943" transform="rotate(-0 31.064063 36.258943)">0.0003</text>
     </g>
    </g>
    <g id="text_11">
     <text style="font: 5px 'Arial'; text-anchor: middle" x="10.720313" y="46.316142" transform="rotate(-90 10.720313 46.316142)">y</text>
    </g>
   </g>
   <g id="line2d_10">
    <path d="M 47.949889 65.107383 
L 143.540115 44.682121 
L 245.666425 27.524901 
" clip-path="url(#pf38c3b3cd7)" style="fill: none; stroke: #0000ff; stroke-linecap: square"/>
   </g>
   <g id="line2d_11">
    <path d="M 143.540115 65.107383 
L 143.540115 44.702546 
L 143.540115 44.702546 
" clip-path="url(#pf38c3b3cd7)" style="fill: none; stroke: #ff0000; stroke-linecap: square"/>
   </g>
   <g id="line2d_12">
    <path d="M 47.949889 65.107383 
L 143.444525 65.107383 
L 143.444525 65.107383 
" clip-path="url(#pf38c3b3cd7)" style="fill: none; stroke: #ff0000; stroke-linecap: square"/>
   </g>
   <g id="line2d_13">
    <path d="M 143.540115 44.682121 
L 143.540115 27.542058 
L 143.540115 27.542058 
" clip-path="url(#pf38c3b3cd7)" style="fill: none; stroke: #ff0000; stroke-linecap: square"/>
   </g>
   <g id="line2d_14">
    <path d="M 143.540115 27.524901 
L 245.564298 27.524901 
L 245.564298 27.524901 
" clip-path="url(#pf38c3b3cd7)" style="fill: none; stroke: #ff0000; stroke-linecap: square"/>
   </g>
   <g id="patch_3">
    <path d="M 38.064063 75.782283 
L 38.064063 16.85 
" style="fill: none; stroke: #000000; stroke-width: 0.8; stroke-linejoin: miter; stroke-linecap: square"/>
   </g>
   <g id="patch_4">
    <path d="M 255.552251 75.782283 
L 255.552251 16.85 
" style="fill: none; stroke: #000000; stroke-width: 0.8; stroke-linejoin: miter; stroke-linecap: square"/>
   </g>
   <g id="patch_5">
    <path d="M 38.064063 75.782283 
L 255.552251 75.782283 
" style="fill: none; stroke: #000000; stroke-width: 0.8; stroke-linejoin: miter; stroke-linecap: square"/>
   </g>
   <g id="patch_6">
    <path d="M 38.064063 16.85 
L 255.552251 16.85 
" style="fill: none; stroke: #000000; stroke-width: 0.8; stroke-linejoin: miter; stroke-linecap: square"/>
   </g>
   <g id="text_12">
    <!-- $\Delta x_{4} = x_{5}-x_{4}$ -->
    <g transform="translate(49.927055 72.623879)">
     <text>
      <tspan style="font: 5px 'DejaVu Sans'" x="0 9.717041 21.177246" y="-0.359375">Δ=−</tspan>
      <tspan style="font: oblique 5px 'DejaVu Sans'" x="3.42041 14.880615 26.34082" y="-0.359375">xxx</tspan>
      <tspan style="font: 3.5px 'DejaVu Sans'" x="6.379395 17.8396 29.299805" y="0.4609375">454</tspan>
     </text>
    </g>
   </g>
   <g id="text_13">
    <!-- $\Delta y_{4} = y_{5}-y_{4}$ -->
    <g transform="translate(145.51728 54.894752)">
     <text>
      <tspan style="font: 5px 'DejaVu Sans'" x="0 9.717041 21.177246" y="-0.359375">Δ=−</tspan>
      <tspan style="font: oblique 5px 'DejaVu Sans'" x="3.42041 14.880615 26.34082" y="-0.359375">yyy</tspan>
      <tspan style="font: 3.5px 'DejaVu Sans'" x="6.379395 17.8396 29.299805" y="0.4609375">454</tspan>
     </text>
    </g>
   </g>
   <g id="text_14">
    <!-- $\Delta x_{5} = x_{6}-x_{5}$ -->
    <g transform="translate(145.51728 23.766653)">
     <text>
      <tspan style="font: 5px 'DejaVu Sans'" x="0 9.717041 21.177246" y="-0.359375">Δ=−</tspan>
      <tspan style="font: oblique 5px 'DejaVu Sans'" x="3.42041 14.880615 26.34082" y="-0.359375">xxx</tspan>
      <tspan style="font: 3.5px 'DejaVu Sans'" x="6.379395 17.8396 29.299805" y="0.4609375">565</tspan>
     </text>
    </g>
   </g>
   <g id="text_15">
    <!-- $\Delta y_{5} = y_{6}-y_{5}$ -->
    <g transform="translate(107.951139 36.103511)">
     <text>
      <tspan style="font: 5px 'DejaVu Sans'" x="0 9.717041 21.177246" y="-0.359375">Δ=−</tspan>
      <tspan style="font: oblique 5px 'DejaVu Sans'" x="3.42041 14.880615 26.34082" y="-0.359375">yyy</tspan>
      <tspan style="font: 3.5px 'DejaVu Sans'" x="6.379395 17.8396 29.299805" y="0.4609375">565</tspan>
     </text>
    </g>
   </g>
   <g id="PathCollection_1">
    <defs>
     <path id="m334e2b84e9" d="M 0 0.866025 
C 0.229673 0.866025 0.449969 0.774776 0.612372 0.612372 
C 0.774776 0.449969 0.866025 0.229673 0.866025 0 
C 0.866025 -0.229673 0.774776 -0.449969 0.612372 -0.612372 
C 0.449969 -0.774776 0.229673 -0.866025 0 -0.866025 
C -0.229673 -0.866025 -0.449969 -0.774776 -0.612372 -0.612372 
C -0.774776 -0.449969 -0.866025 -0.229673 -0.866025 0 
C -0.866025 0.229673 -0.774776 0.449969 -0.612372 0.612372 
C -0.449969 0.774776 -0.229673 0.866025 0 0.866025 
z
" style="stroke: #800080"/>
    </defs>
    <g clip-path="url(#pf38c3b3cd7)">
     <use xlink:href="#m334e2b84e9" x="47.949889" y="65.107383" style="fill: #800080; stroke: #800080"/>
     <use xlink:href="#m334e2b84e9" x="143.540115" y="44.682121" style="fill: #800080; stroke: #800080"/>
     <use xlink:href="#m334e2b84e9" x="245.666425" y="27.524901" style="fill: #800080; stroke: #800080"/>
    </g>
   </g>
   <g id="text_16">
    <!-- Calculating $x$ and $y$ offset -->
    <g transform="translate(118.408157 10.85)">
     <text>
      <tspan style="font: 5px 'Arial'" x="0 3.61084 6.391602 7.502441 10.002441 12.783203 13.894043 16.674805 18.063965 19.174805 21.955566 24.736328 29.084473 30.473633 33.254395 36.035156 38.815918 43.164062 44.553223 47.333984 48.723145 50.112305 52.612305 55.393066" y="-0.359375">Calculating  and  offset</tspan>
      <tspan style="font: oblique 5px 'DejaVu Sans'" x="26.125488 40.205078" y="-0.359375">xy</tspan>
     </text>
    </g>
   </g>
  </g>
 </g>
 <defs>
  <clipPath id="pf38c3b3cd7">
   <rect x="38.064063" y="16.85" width="217.488189" height="58.932283"/>
  </clipPath>
 </defs>
</svg>
